<svg width="22" height="14" viewBox="0 0 22 14" fill="none" xmlns="http://www.w3.org/2000/svg">
<path d="M0 9C0 7.89543 0.895431 7 2 7H5V14H2C0.89543 14 0 13.1046 0 12V9Z" fill="#727272"/>
<path d="M22 12C22 13.1046 21.1046 14 20 14H17V7L20 7C21.1046 7 22 7.89543 22 9V12Z" fill="#727272"/>
<path d="M5.02881 14V4.37036" stroke="#727272"/>
<path d="M5.02883 5.33333C4.88666 3.88889 5.19944 1 7.58795 1C9.97645 1 10.8579 1 11 1" stroke="#727272"/>
<path d="M16.9712 14L16.9712 4.37036" stroke="#727272"/>
<path d="M16.9712 5.33333C17.1133 3.88889 16.8006 1 14.4121 1C12.0236 1 11.1421 1 11 1" stroke="#727272"/>
</svg>
